<?xml version="1.0" encoding="UTF-8"?>
<svg width="512" height="512" viewBox="0 0 512 512" fill="none" xmlns="http://www.w3.org/2000/svg">
  <rect width="512" height="512" rx="256" fill="url(#paint0_linear)" />
  <path d="M256 128C192 128 140 180 140 244C140 308 192 360 256 360C320 360 372 308 372 244C372 180 320 128 256 128ZM256 340C203.2 340 160 296.8 160 244C160 191.2 203.2 148 256 148C308.8 148 352 191.2 352 244C352 296.8 308.8 340 256 340Z" fill="white" />
  <path d="M256 168C214.4 168 180 202.4 180 244C180 285.6 214.4 320 256 320C297.6 320 332 285.6 332 244C332 202.4 297.6 168 256 168ZM256 300C225.6 300 200 274.4 200 244C200 213.6 225.6 188 256 188C286.4 188 312 213.6 312 244C312 274.4 286.4 300 256 300Z" fill="white" />
  <path d="M256 208C247.2 208 240 215.2 240 224C240 232.8 247.2 240 256 240C264.8 240 272 232.8 272 224C272 215.2 264.8 208 256 208Z" fill="white" />
  <path d="M296 224C296 215.2 288.8 208 280 208C271.2 208 264 215.2 264 224C264 232.8 271.2 240 280 240C288.8 240 296 232.8 296 224Z" fill="white" />
  <path d="M232 224C232 215.2 224.8 208 216 208C207.2 208 200 215.2 200 224C200 232.8 207.2 240 216 240C224.8 240 232 232.8 232 224Z" fill="white" />
  <path d="M256 248C247.2 248 240 255.2 240 264C240 272.8 247.2 280 256 280C264.8 280 272 272.8 272 264C272 255.2 264.8 248 256 248Z" fill="white" />
  <path d="M280 248C271.2 248 264 255.2 264 264C264 272.8 271.2 280 280 280C288.8 280 296 272.8 296 264C296 255.2 288.8 248 280 248Z" fill="white" />
  <path d="M216 248C207.2 248 200 255.2 200 264C200 272.8 207.2 280 216 280C224.8 280 232 272.8 232 264C232 255.2 224.8 248 216 248Z" fill="white" />
  <defs>
    <linearGradient id="paint0_linear" x1="0" y1="0" x2="512" y2="512" gradientUnits="userSpaceOnUse">
      <stop offset="0" stop-color="#3A86FF" />
      <stop offset="0.5" stop-color="#FF006E" />
      <stop offset="1" stop-color="#FB5607" />
    </linearGradient>
  </defs>
</svg>
